<svg xmlns="http://www.w3.org/2000/svg" viewBox="0 0 512 512" role="img" aria-label="Blood of Dawnwalker Guide icon">
  <rect width="512" height="512" rx="96" fill="#0b0d0f"/>
  <path d="M91 356c39 44 94 68 165 68 70 0 126-24 165-68-35 17-84 25-146 23-77-2-139-10-184-23Z" fill="#d5a24a" opacity=".92"/>
  <path d="M256 64c62 74 93 136 93 186 0 55-41 98-93 98s-93-43-93-98c0-50 31-112 93-186Z" fill="#b12e36"/>
  <path d="M256 111c39 55 59 99 59 132 0 36-26 64-59 64s-59-28-59-64c0-33 20-77 59-132Z" fill="#ec525f" opacity=".48"/>
  <path d="M154 176h87c39 0 66 22 66 57 0 20-10 38-27 48 25 9 41 30 41 58 0 42-32 68-82 68h-85V176Zm80 93c20 0 32-11 32-28 0-18-12-28-32-28h-36v56h36Zm5 100c25 0 39-12 39-33 0-20-14-32-39-32h-41v65h41Z" fill="#f4eee6"/>
  <path d="M314 176h44c61 0 101 45 101 115s-40 116-101 116h-44v-42h39c37 0 61-29 61-74s-24-73-61-73h-39v-42Z" fill="#f4eee6"/>
</svg>
