<svg xmlns="http://www.w3.org/2000/svg" viewBox="0 0 1600 900" role="img" aria-label="Original dark fantasy dawn landscape">
  <defs>
    <linearGradient id="sky" x1="0" x2="1" y1="0" y2="1">
      <stop offset="0" stop-color="#090b0d"/>
      <stop offset="0.52" stop-color="#211519"/>
      <stop offset="1" stop-color="#5b1c25"/>
    </linearGradient>
    <linearGradient id="dawn" x1="0" x2="0" y1="0" y2="1">
      <stop offset="0" stop-color="#e0a64a" stop-opacity=".55"/>
      <stop offset="1" stop-color="#b12e36" stop-opacity="0"/>
    </linearGradient>
  </defs>
  <rect width="1600" height="900" fill="url(#sky)"/>
  <path d="M0 590C180 535 335 520 480 552c120 27 210 84 352 68 155-17 254-118 424-98 122 14 229 82 344 54v324H0Z" fill="#08090a"/>
  <path d="M0 700c210-64 400-65 570-5 131 46 243 63 362 26 195-61 411-42 668 47v132H0Z" fill="#0f1214"/>
  <path d="M1030 562h276v214h-276z" fill="#090b0d"/>
  <path d="M1000 562h336l-168-150z" fill="#090b0d"/>
  <path d="M1072 488h56v-92l-28-42-28 42zM1210 488h56v-92l-28-42-28 42z" fill="#090b0d"/>
  <path d="M1136 776V650c0-46 64-46 64 0v126z" fill="#15191d"/>
  <path d="M0 0h1600v900H0z" fill="url(#dawn)"/>
  <path d="M980 346c92-68 199-67 318 2-72-23-143-19-213 13-36 16-71 11-105-15Z" fill="#d5a24a" opacity=".38"/>
  <circle cx="1180" cy="325" r="74" fill="#d5a24a" opacity=".23"/>
</svg>
